<svg width="32" height="32" viewBox="0 0 32 32" fill="none" xmlns="http://www.w3.org/2000/svg">
  <rect width="32" height="32" rx="6" fill="url(#gradient)"/>
  <path d="M16 8C14.5 8 13 9 12 10.5C11 9 9.5 8 8 8C6 8 4 10 4 13C4 16 7 19 12 22C13.5 23 14.5 23.5 16 23.5C17.5 23.5 18.5 23 20 22C25 19 28 16 28 13C28 10 26 8 24 8C22.5 8 21 9 20 10.5C19 9 17.5 8 16 8Z" fill="white"/>
  <defs>
    <linearGradient id="gradient" x1="0" y1="0" x2="32" y2="32" gradientUnits="userSpaceOnUse">
      <stop stop-color="#16a34a"/>
      <stop offset="0.5" stop-color="#22c55e"/>
      <stop offset="1" stop-color="#3b82f6"/>
    </linearGradient>
  </defs>
</svg>